<svg xmlns="http://www.w3.org/2000/svg" xmlns:xlink="http://www.w3.org/1999/xlink" width="256" height="344" viewBox="0 0 256 344">
  <defs>
    <clipPath id="clip-path">
      <rect width="256" height="344" fill="none"/>
    </clipPath>
  </defs>
  <g id="back-img-service-item" opacity="0.48" clip-path="url(#clip-path)">
    <g transform="translate(-697 -2804)">
      <rect id="Rectangle_41" data-name="Rectangle 41" width="1" height="1" transform="translate(697 2804)" fill="#fff"/>
    </g>
    <g transform="translate(-647 -2804)">
      <rect id="Rectangle_41-2" data-name="Rectangle 41" width="1" height="1" transform="translate(697 2804)" fill="#fff"/>
    </g>
    <g transform="translate(-597 -2804)">
      <rect id="Rectangle_41-3" data-name="Rectangle 41" width="1" height="1" transform="translate(697 2804)" fill="#fff"/>
    </g>
    <g transform="translate(-547 -2804)">
      <rect id="Rectangle_41-4" data-name="Rectangle 41" width="1" height="1" transform="translate(697 2804)" fill="#fff"/>
    </g>
    <g transform="translate(-497 -2804)">
      <rect id="Rectangle_41-5" data-name="Rectangle 41" width="1" height="1" transform="translate(697 2804)" fill="#fff"/>
    </g>
    <g transform="translate(-447 -2804)">
      <rect id="Rectangle_41-6" data-name="Rectangle 41" width="1" height="1" transform="translate(697 2804)" fill="#fff"/>
    </g>
    <g transform="translate(-697 -2754)">
      <rect id="Rectangle_41-7" data-name="Rectangle 41" width="1" height="1" transform="translate(697 2804)" fill="#fff"/>
    </g>
    <g transform="translate(-647 -2754)">
      <rect id="Rectangle_41-8" data-name="Rectangle 41" width="1" height="1" transform="translate(697 2804)" fill="#fff"/>
    </g>
    <g transform="translate(-597 -2754)">
      <rect id="Rectangle_41-9" data-name="Rectangle 41" width="1" height="1" transform="translate(697 2804)" fill="#fff"/>
    </g>
    <g transform="translate(-547 -2754)">
      <rect id="Rectangle_41-10" data-name="Rectangle 41" width="1" height="1" transform="translate(697 2804)" fill="#fff"/>
    </g>
    <g transform="translate(-497 -2754)">
      <rect id="Rectangle_41-11" data-name="Rectangle 41" width="1" height="1" transform="translate(697 2804)" fill="#fff"/>
    </g>
    <g transform="translate(-447 -2754)">
      <rect id="Rectangle_41-12" data-name="Rectangle 41" width="1" height="1" transform="translate(697 2804)" fill="#fff"/>
    </g>
    <g transform="translate(-697 -2704)">
      <rect id="Rectangle_41-13" data-name="Rectangle 41" width="1" height="1" transform="translate(697 2804)" fill="#fff"/>
    </g>
    <g transform="translate(-647 -2704)">
      <rect id="Rectangle_41-14" data-name="Rectangle 41" width="1" height="1" transform="translate(697 2804)" fill="#fff"/>
    </g>
    <g transform="translate(-597 -2704)">
      <rect id="Rectangle_41-15" data-name="Rectangle 41" width="1" height="1" transform="translate(697 2804)" fill="#fff"/>
    </g>
    <g transform="translate(-547 -2704)">
      <rect id="Rectangle_41-16" data-name="Rectangle 41" width="1" height="1" transform="translate(697 2804)" fill="#fff"/>
    </g>
    <g transform="translate(-497 -2704)">
      <rect id="Rectangle_41-17" data-name="Rectangle 41" width="1" height="1" transform="translate(697 2804)" fill="#fff"/>
    </g>
    <g transform="translate(-447 -2704)">
      <rect id="Rectangle_41-18" data-name="Rectangle 41" width="1" height="1" transform="translate(697 2804)" fill="#fff"/>
    </g>
    <g transform="translate(-697 -2654)">
      <rect id="Rectangle_41-19" data-name="Rectangle 41" width="1" height="1" transform="translate(697 2804)" fill="#fff"/>
    </g>
    <g transform="translate(-647 -2654)">
      <rect id="Rectangle_41-20" data-name="Rectangle 41" width="1" height="1" transform="translate(697 2804)" fill="#fff"/>
    </g>
    <g transform="translate(-597 -2654)">
      <rect id="Rectangle_41-21" data-name="Rectangle 41" width="1" height="1" transform="translate(697 2804)" fill="#fff"/>
    </g>
    <g transform="translate(-547 -2654)">
      <rect id="Rectangle_41-22" data-name="Rectangle 41" width="1" height="1" transform="translate(697 2804)" fill="#fff"/>
    </g>
    <g transform="translate(-497 -2654)">
      <rect id="Rectangle_41-23" data-name="Rectangle 41" width="1" height="1" transform="translate(697 2804)" fill="#fff"/>
    </g>
    <g transform="translate(-447 -2654)">
      <rect id="Rectangle_41-24" data-name="Rectangle 41" width="1" height="1" transform="translate(697 2804)" fill="#fff"/>
    </g>
    <g transform="translate(-697 -2604)">
      <rect id="Rectangle_41-25" data-name="Rectangle 41" width="1" height="1" transform="translate(697 2804)" fill="#fff"/>
    </g>
    <g transform="translate(-647 -2604)">
      <rect id="Rectangle_41-26" data-name="Rectangle 41" width="1" height="1" transform="translate(697 2804)" fill="#fff"/>
    </g>
    <g transform="translate(-597 -2604)">
      <rect id="Rectangle_41-27" data-name="Rectangle 41" width="1" height="1" transform="translate(697 2804)" fill="#fff"/>
    </g>
    <g transform="translate(-547 -2604)">
      <rect id="Rectangle_41-28" data-name="Rectangle 41" width="1" height="1" transform="translate(697 2804)" fill="#fff"/>
    </g>
    <g transform="translate(-497 -2604)">
      <rect id="Rectangle_41-29" data-name="Rectangle 41" width="1" height="1" transform="translate(697 2804)" fill="#fff"/>
    </g>
    <g transform="translate(-447 -2604)">
      <rect id="Rectangle_41-30" data-name="Rectangle 41" width="1" height="1" transform="translate(697 2804)" fill="#fff"/>
    </g>
    <g transform="translate(-697 -2554)">
      <rect id="Rectangle_41-31" data-name="Rectangle 41" width="1" height="1" transform="translate(697 2804)" fill="#fff"/>
    </g>
    <g transform="translate(-647 -2554)">
      <rect id="Rectangle_41-32" data-name="Rectangle 41" width="1" height="1" transform="translate(697 2804)" fill="#fff"/>
    </g>
    <g transform="translate(-597 -2554)">
      <rect id="Rectangle_41-33" data-name="Rectangle 41" width="1" height="1" transform="translate(697 2804)" fill="#fff"/>
    </g>
    <g transform="translate(-547 -2554)">
      <rect id="Rectangle_41-34" data-name="Rectangle 41" width="1" height="1" transform="translate(697 2804)" fill="#fff"/>
    </g>
    <g transform="translate(-497 -2554)">
      <rect id="Rectangle_41-35" data-name="Rectangle 41" width="1" height="1" transform="translate(697 2804)" fill="#fff"/>
    </g>
    <g transform="translate(-447 -2554)">
      <rect id="Rectangle_41-36" data-name="Rectangle 41" width="1" height="1" transform="translate(697 2804)" fill="#fff"/>
    </g>
    <g transform="translate(-697 -2504)">
      <rect id="Rectangle_41-37" data-name="Rectangle 41" width="1" height="1" transform="translate(697 2804)" fill="#fff"/>
    </g>
    <g transform="translate(-647 -2504)">
      <rect id="Rectangle_41-38" data-name="Rectangle 41" width="1" height="1" transform="translate(697 2804)" fill="#fff"/>
    </g>
    <g transform="translate(-597 -2504)">
      <rect id="Rectangle_41-39" data-name="Rectangle 41" width="1" height="1" transform="translate(697 2804)" fill="#fff"/>
    </g>
    <g transform="translate(-547 -2504)">
      <rect id="Rectangle_41-40" data-name="Rectangle 41" width="1" height="1" transform="translate(697 2804)" fill="#fff"/>
    </g>
    <g transform="translate(-497 -2504)">
      <rect id="Rectangle_41-41" data-name="Rectangle 41" width="1" height="1" transform="translate(697 2804)" fill="#fff"/>
    </g>
    <g transform="translate(-447 -2504)">
      <rect id="Rectangle_41-42" data-name="Rectangle 41" width="1" height="1" transform="translate(697 2804)" fill="#fff"/>
    </g>
  </g>
</svg>
